<?xml version="1.0" encoding="UTF-8" standalone="no"?>
<svg xmlns="http://www.w3.org/2000/svg" xmlns:xlink="http://www.w3.org/1999/xlink" xmlns:svg="http://www.w3.org/2000/svg" version="1.1" baseProfile="full" width="1900" height="100" viewBox="0 0 1900 100" preserveAspectRatio="xMidYMid meet" stroke="rgb(240,188,212)" stroke-width="5" stroke-linecap="round" stroke-linejoin="round" fill="none">

<!-- logo - width 3 -->
<g stroke-width="3">
<circle cx="50" cy="50" r="48" fill="none" />
<path d="m 40,79 -13,-17 -9,-7 2,-12 8,-7.5 1.5,-20 13,15 7.5,-3 8,2.5 12,-14.5 1.5,19 7,8 3,10 -8.5,8.5 -12,18.5" />
<path d="m 61,65 v 20 l -10,6 -10,-6 V 65" />
<path d="m 48,80 3,2 3,-2" />
<line x1="40" y1="53" x2="36" y2="48" />
<line x1="61" y1="53" x2="65" y2="48" />
</g>

<!-- logo - width 4 -->
<g transform="translate(100,0)" stroke-width="4">
<circle cx="50" cy="50" r="48" fill="none" />
<path d="m 40,79 -13,-17 -9,-7 2,-12 8,-7.5 1.5,-20 13,15 7.5,-3 8,2.5 12,-14.5 1.5,19 7,8 3,10 -8.5,8.5 -12,18.5" />
<path d="m 61,65 v 20 l -10,6 -10,-6 V 65" />
<path d="m 48,80 3,2 3,-2" />
<line x1="40" y1="53" x2="36" y2="48" />
<line x1="61" y1="53" x2="65" y2="48" />
</g>


<!-- obchůzky -->
<g transform="translate(200,0)" stroke-width="4">
<circle cx="45" cy="11.5" r="9" />
<path d="m 52.5,23 c -5,1 -10,0.5 -14,2 l -21,24 c 0.5,4.5 3,5 7.5,5 4,-6 3.2,-2.6 15.7,-18 0,7 -0.2,13.5 -0.3,20.2 l 21,-10e-7 C 60.5,49 59.2,42.4 61,35 l 6.2,4 0.6,13 c 5.6,3 4.3,1.4 8.6,-10e-7 L 75.3,35.2 C 68.3,28.1 64,27.2 58.2,24 Z" />
<path d="m 61,56 -21,10e-7 L 15.5,97 c 5,2.5 7.8,2.5 12.8,0 3.5,-14 18,-34.5 23.7,-29 9.5,8.5 12.3,19 14.5,29 4,2 8,1.2 11.5,0.5 z" />
</g>


<!-- nastavení -->
<g transform="translate(300,0)" stroke-width="4">
<g transform="rotate(45 , 50, 50)">
<circle cx="50" cy="50" r="35" />
<g fill="black">
<rect x="40" y="5" width="20" height="20" />
<rect x="40" y="5" width="20" height="20" transform="rotate(60 , 50, 50)" />
<rect x="40" y="5" width="20" height="20" transform="rotate(120 , 50, 50)" />
<rect x="40" y="75" width="20" height="20" />
<rect x="40" y="5" width="20" height="20" transform="rotate(240 , 50, 50)" />
<rect x="40" y="5" width="20" height="20" transform="rotate(300 , 50, 50)" />
<circle cx="50" cy="50" r="34" stroke="transparent" />
</g>
<circle cx="50" cy="50" r="15"   />
</g>
</g>

<!-- oživit -->
<g transform="translate(400,0)" stroke-width="4">
<circle cx="50" cy="50" r="45" />
<path d="M15,40 l25,0 l0,-25 l20,0 l0,25 l25,0 l0,20 l-25,0 l0,25 l-20,0 l0,-25 l-25,0 z" />
</g>


<!-- minutka -->
<g transform="translate(500,0)">
<circle cx="50" cy="54" r="40" />
<path d="M 23.5,55.5 H 51.4 L 50.6,27.6" />
<path d="M 30,7 H 70" />
<path d="m 49.5,8.5 v 4" />
<path d="M 84,32 89,28" />
</g>


<!-- minutka - bold - stroke-width="8" -->
<g transform="translate(600,0)" stroke-width="8">
<circle cx="50" cy="54" r="40" />
<path d="M 23.5,55.5 H 51.4 L 50.6,27.6" />
<path d="M 30,7 H 70" />
<path d="m 49.5,8.5 v 4" />
<path d="M 84,32 89,28" />
</g>


<!-- plánovač -->
<g transform="translate(700,0)">
<path d="M 65,75 H 75 V 65" />
<path d="M 54.5,85 12,85 V 12 h 73 l 0,42" />
<circle cx="73" cy="73" r="21" />
<path d="m 24,25 4,0" />
<path d="m 24,40 4,0" />
<path d="m 24,55 4,0" />
<path d="m 24,70 4,0" />
<path d="m 39,25 4,0" />
<path d="m 39,55 4,0" />
<path d="m 39,70 4,0" />
<path d="m 39,40 4,0" />
<path d="m 53,25 4,0" />
<path d="m 53,40 4,0" />
<path d="m 68,25 4,0" />
<path d="m 68,40 4,0" />
</g>

<!-- kontakt -->
<g transform="translate(800,0)">
<rect width="75" height="80" x="12" y="12" />
<path d="m 38.5,23.5 8.5,9.5 c -1.3,4.2 -6,6.5 -8.3,6.5 3,11 12.5,14.5 18.3,20.2 1.5,-3 3.5,-7.5 6.5,-8 l 9.3,9 C 73,67 67,71 60.5,72 45.5,63.5 31,54 26,34.5 27.2,28.3 30,23.5 38.5,23.5 Z" />
<path d="m 15,82 70,0" />
</g>

<!-- přestávky -->
<g transform="translate(900,0)">
<path d="m 85.6,55 a 35,35 0 0 1 -17.5,30.5 35,35 0 0 1 -35,0 35,35 0 0 1 -17.5,-30.5" />
<path d="m 17,55 68,0" />
<path d="M 30,93 72.5,93" />
<path d="m 85,64.5 a 5,6 0 0 1 7,7 10,11 0 0 1 -5.5,8.5 7,8 0 0 1 -6,-3" />
<path d="M 25,8.5 C 30.5,18 18,30 24.5,45.5" />
<path d="M 50,3 C 55,12 42.5,24.5 49,40" />
<path d="M 75,8 C 80,17 67.5,30 74,44.5" />
</g>

<!-- plán -->
<g transform="translate(1000,0)" stroke-width="10">
<circle cx="50" cy="50" r="40" />
<path d="m 65,65 -15,-15 0,-18" />
</g>

<!-- plus -->
<g transform="translate(1100,0)" stroke-width="10" stroke="rgb(31,3,34)">
<line x1="30" y1="50" x2="70" y2="50" />
<line x1="50" y1="30" x2="50" y2="70" />
</g>

<!-- mínus -->
<g transform="translate(1200,0)">
<line stroke-width="10" stroke="rgb(31,3,34)" x1="35" y1="50" x2="65" y2="50" />
</g>

<!-- varování - vykřičník -->
<g transform="translate(1300,0)">
<polygon points=" 10,90 90,90 50,10" />
<line x1="50" y1="35" x2="50" y2="65" />
<circle cx="50" cy="77.5" r="2.5"  />
</g>


<!-- křížek -->
<g transform="translate(1400,0)">
<line stroke-width="10" x1="5" y1="5" x2="95" y2="95" />
<line stroke-width="10" x1="95" y1="5" x2="5" y2="95" />
</g>

<!-- vypnout zvuk - přeškrklý zvuk -->
<g transform="translate(1500,0)" stroke="rgb(31,3,34)">
<path d="M 41.5,90 40.76,12.8 23.94,38.36 5.35,38.73 v 27.66 l 18.88,1.57 z" />
<line x1="55" y1="35" x2="90" y2="70" />
<line x2="55" y1="35" x1="90" y2="70" />
</g>


<!-- hlasitost -->
<g transform="translate(1600,0)">
<path d="m 41.5,88.7 -1,-77.2 -16.8,25.6 -18.6,0.5 v 27.7 l 18.9,1.6 z" />
<path d="m 50.9,38.6 a 8.7,12.8 0 0 1 7.6,6.3 8.7,12.8 0 0 1 0.1,12.8 8.7,12.8 0 0 1 -7.6,6.4" />
<path d="M 63,28.6 A 12.7,22.6 0 0 1 74.2,39.3 12.7,22.6 0 0 1 74.3,62 12.7,22.6 0 0 1 63.2,73.4" />
<path d="m 75.8,15.6 a 16.9,33.5 0 0 1 14.7,17.2 16.9,33.5 0 0 1 0,33.5 16.9,33.5 0 0 1 -14.7,17.2" />
</g>

<!-- jas -->
<g transform="translate(1700,0)">
<circle cy="50" cx="50" r="23" />
<path fill="rgb(240,188,212)" d="M 50,73 A 23,23 0 0 1 27,50 23,23 0 0 1 50,27" />
<path d="M 50,20 50,5" />
<path d="m 50,80 0,15" />
<path d="M 80,50 95,50" />
<path d="M 20,50.5 H 5" />
<path d="M 10,10 25,27" />
<path d="M 87,87 72,74" />
<path d="M 87,10 72,27" />
<path d="m 11,90 15,-15" />
</g>

<!-- hodiny -->
<g transform="translate(1800,0)" stroke-width="10">
<circle cx="50" cy="54" r="40" />
<path d="M 28,55 H 50 L 50,30" />
</g>

</svg>