<?xml version="1.0" encoding="UTF-8" standalone="no"?>
<svg xmlns="http://www.w3.org/2000/svg" xmlns:xlink="http://www.w3.org/1999/xlink" xmlns:svg="http://www.w3.org/2000/svg" version="1.1" baseProfile="full" width="1800" height="100" viewBox="0 0 1800 100" preserveAspectRatio="xMidYMid meet" stroke="rgb(138,28,124)" stroke-width="3" stroke-linecap="round" stroke-linejoin="round" fill="none">

<!-- okno vlevo -->
<rect width="197" height="97" x="1.5" y="1.5" />
<rect fill="rgb(240,188,212)" width="45" height="97" x="1.5" y="1.5" />

<!-- okno vlevo mini -->
<g transform="translate(200,0)">
<rect width="197" height="97" x="1.5" y="1.5" />
<rect fill="rgb(240,188,212)" width="30" height="97" x="1.5" y="1.5" />
</g>

<!-- mini okno -->
<g transform="translate(400,0)">
<rect width="197" height="97" x="1.5" y="1.5" />
<rect fill="rgb(240,188,212)" width="30" height="47" x="1.5" y="1.5" />
</g>

<!-- cool okno -->
<g transform="translate(600,0)">
<rect width="197" height="97" x="1.5" y="1.5" />
<rect fill="rgb(240,188,212)" width="80" height="60" x="60" y="20" />
</g>

<!-- celé okno -->
<g transform="translate(800,0)">
<rect fill="rgb(240,188,212)" width="197" height="97" x="1.5" y="1.5" />
</g>


<!-- plné okno -->
<g transform="translate(1000,0)">
<rect fill="rgb(240,188,212)" width="197" height="97" x="1.5" y="1.5" />
<g stroke="rgb(31,3,34)">
<path d="M 25,82 172.4,18 143,22" />
<path d="m 172.4,18 -20,17.5" />
<path d="M 47,65.4 25,82 53.4,76.6" />
<path d="M 172.4,81 25,18 l 29.3,3.8" />
<path d="m 25,18 20,17.5" />
<path d="m 151,65 22,16.4 -28.5,-5.2" />
</g>
</g>


<!-- okno vpravo-mini -->
<g transform="translate(1200,0)">
<rect width="197" height="97" x="1.5" y="1.5" />
<rect fill="rgb(240,188,212)" width="30" height="97" x="168.5" y="1.5" />
</g>

<!-- okno vpravo -->
<g transform="translate(1400,0)">
<rect width="197" height="97" x="1.5" y="1.5" />
<rect fill="rgb(240,188,212)" width="45" height="97" x="153.5" y="1.5" />
</g>

<!-- zámek obrazovky -->
<g transform="translate(1600,0)">
<rect fill="none" width="196.5" height="96.5" x="2" y="2" />
<g stroke-dasharray="5" stroke-dashoffset="0">
<path d="M 11.5,9.5 63.5,36.5" />
<path d="M 11.5,88.5 63.5,61.5" />
<path d="m 140.5,61.5 52,27" />
<path d="M 140.5,36.5 188.5,9.5" />
</g>
<g stroke="rgb(240, 188, 212)" stroke-width="5">
<path stroke-width="10" d="M 86,40 V 22 c 2,-5 6,-7 12,-7 h 6 c 2,0 8,2 10,7 v 17" />
<path d="m 75,43 h 50 c 0,12 0,24 -4,34 -7,5 -14,7 -21,9 C 93,85 85,81 79,77 76,66 75,54 75,43 Z" />
<circle stroke-width="3" fill="rgb(240,188,212)" cy="61" cx="100" r="4" />
<rect stroke-width="3" fill="rgb(240,188,212)" width="4" height="7" x="98" y="65" />
</g></g>
</svg>