<?xml version="1.0" encoding="UTF-8" standalone="no"?>
<svg xmlns="http://www.w3.org/2000/svg" xmlns:xlink="http://www.w3.org/1999/xlink" xmlns:svg="http://www.w3.org/2000/svg" version="1.1" baseProfile="full" width="100" height="100" viewBox="0 0 100 100" preserveAspectRatio="xMidYMid meet"  stroke="rgb(31,3,34)" stroke-width="3" stroke-linecap="round" stroke-linejoin="round" fill="none">
<!-- Definování klíčových snímků animace -->
<style>
.draw{
stroke-dasharray:100;
stroke-dashoffset:100;
animation:draw 1s ease-out forwards;
}
@keyframes draw{to{stroke-dashoffset:0;}}
/* Zpoždění animací jednotlivých čar */
#line1{animation-delay:.5s;}
#line2{animation-delay:.6s;}
#line3{animation-delay:.7s;}
#line4{animation-delay:.8s;}
#line5{animation-delay:.9s;}
#line6{animation-delay:1s;}
#line7{animation-delay:1.1s;}
#line8{animation-delay:1.2s;}
#line9{animation-delay:1.3s;}
#line10{animation-delay:1.4s;}
#line11{animation-delay:1.5s;}
#line12{animation-delay:1.6s;}
#line13{animation-delay:1.7s;}
#line14{animation-delay:1.8s;}
#line15{animation-delay:1.9s;}
#line16{animation-delay:2s;}
#line17{animation-delay:2.1s;}
#line18{animation-delay:2.2s;}
#line19{animation-delay:2.2s;}
#line20{animation-delay:2.2s;}
#line21{animation-delay:2.3s;}
#line22{animation-delay:2.3s;}
</style>
<!-- Čáry s animací kreslení -->
<line id="line1" class="draw" x1="40" y1="79" x2="27" y2="62" />
<line id="line2" class="draw" x1="27" y1="62" x2="18" y2="55" />
<line id="line3" class="draw" x1="18" y1="55" x2="20" y2="43" />
<line id="line4" class="draw" x1="20" y1="43" x2="28" y2="35.5" />
<line id="line5" class="draw" x1="28" y1="35.5" x2="29.5" y2="15.5" />
<line id="line6" class="draw" x1="29.5" y1="15.5" x2="42.5" y2="30.5" />
<line id="line7" class="draw" x1="42.5" y1="30.5" x2="50" y2="27.5" />
<line id="line8" class="draw" x1="50" y1="27.5" x2="58" y2="30" />
<line id="line9" class="draw" x1="58" y1="30" x2="70" y2="15.5" />
<line id="line10" class="draw" x1="70" y1="15.5" x2="71.5" y2="34.5" />
<line id="line11" class="draw" x1="71.5" y1="34.5" x2="78.5" y2="42.5" />
<line id="line12" class="draw" x1="78.5" y1="42.5" x2="81.5" y2="52.5" />
<line id="line13" class="draw" x1="81.5" y1="52.5" x2="73" y2="61" />
<line id="line14" class="draw" x1="73" y1="61" x2="61" y2="79.5" />

<!-- Druhý path element přeměněný na přímky -->
<line id="line15" class="draw" x1="61" y1="65" x2="61" y2="85" />
<line id="line16" class="draw" x1="61" y1="85" x2="51" y2="91" />
<line id="line17" class="draw" x1="51" y1="91" x2="41" y2="85" />
<line id="line18" class="draw" x1="41" y1="85" x2="41" y2="65" />

<!-- Třetí path element přeměněný na přímky -->
<line id="line19" class="draw" x1="48" y1="80" x2="51" y2="82" />
<line id="line20" class="draw" x1="51" y1="82" x2="54" y2="80" />

<!-- Stávající line elementy -->
<line id="line21" class="draw" x1="40" y1="53" x2="36" y2="48" />
<line id="line22" class="draw" x1="61" y1="53" x2="65" y2="48" />
</svg>