<?xml version="1.0" encoding="utf-8"?>
<svg xmlns="http://www.w3.org/2000/svg" viewBox="0 0 100 100" stroke-width="3" stroke="rgb(240,188,212)" stroke-linejoin="round" stroke-linecap="round"  fill="none">
<path d="M 65,75 H 75 V 65" />
<path d="M 54.5,85 12,85 V 12 h 73 l 0,42" />
<circle cx="73" cy="73" r="21" />
<path d="m 24,25 4,0" />
<path d="m 24,40 4,0" />
<path d="m 24,55 4,0" />
<path d="m 24,70 4,0" />
<path d="m 39,25 4,0" />
<path d="m 39,55 4,0" />
<path d="m 39,70 4,0" />
<path d="m 39,40 4,0" />
<path d="m 53,25 4,0" />
<path d="m 53,40 4,0" />
<path d="m 68,25 4,0" />
<path d="m 68,40 4,0" />
</svg>
