<?xml version="1.0" encoding="utf-8"?>
<svg xmlns="http://www.w3.org/2000/svg" viewBox="0 0 100 100" stroke-width="3" stroke="rgb(240,188,212)" stroke-linejoin="round" stroke-linecap="round"  fill="none">
<path d="m 85.6,55 a 35,35 0 0 1 -17.5,30.5 35,35 0 0 1 -35,0 35,35 0 0 1 -17.5,-30.5" />
<path d="m 17,55 68,0" />
<path d="M 30,93 72.5,93" />
<path d="m 85,64.5 a 5,6 0 0 1 7,7 10,11 0 0 1 -5.5,8.5 7,8 0 0 1 -6,-3" />
<path d="M 25,8.5 C 30.5,18 18,30 24.5,45.5" />
<path d="M 50,3 C 55,12 42.5,24.5 49,40" />
<path d="M 75,8 C 80,17 67.5,30 74,44.5" />
</svg>
