<?xml version="1.0" encoding="utf-8"?>
<svg xmlns="http://www.w3.org/2000/svg" viewBox="0 0 300 400" stroke-width="5" fill="none" stroke="rgb(138,28,124)">
<g transform="rotate(15 , 200, 200)" stroke="rgb(240,188,212)">
<path d="m 96,256 c 7,-13 9,-28 15,-41 3,-7 6.4,-13 11.4,-19 5,-5 11.5,-9.5 19,-11 7,-1.4 15,0 21.4,3 7,3 12,8 17,14 10,11 15,25 23,37.5 13,21 32,38 43,60 6,11 9,23 9,35 -0,6 -2,12 -4,18 -3,6 -6,11 -11,14 -6,5 -13,8 -21,8 -7.6,1 -15,-1 -23,-4 -14,-6 -25,-18 -33,-31 -1,-1 -2,-3 -3,-4 -1,-1 -3,-2 -4,-2 -1,-0 -2,-0 -2,0 -1,0 -2,1 -2,1 -1,1 -2,2 -4,3 -12,13 -26,24 -42,29 -8,2 -17,2 -26,0 -8,-2 -16,-7 -21,-14 -7,-9 -9,-22 -6,-33 3,-13 11,-24 20,-34 8,-10 18,-20 24,-31 z" />
<path d="m 87,203 c 3,11 1,23 -5,34 -6,10 -14,18 -24,25 -1,1 -2,1 -4,2 -2,1 -5,1 -7,1 -2,-1 -5,-1 -7,-3 -3,-2 -5,-5 -6,-7 -2,-3 -3,-6 -5,-9 -4,-13 -5,-27 -2,-40 3,-13 10,-26 20,-35 1,-1 2,-2 4,-3 1,-1 3,-1 4,-1 2,0 4,1 6,2 2,1 3,3 5,5 8,9 16,18 21.5,30 z" />
<path d="m 134,137 c -0,3 0,6 0,10 -0,8 -1,20 -6,28 -3,4 -6,8 -11,9 -4,2 -10,2 -14,0 -2,-1 -4,-3 -6,-5 -7,-6 -12,-15 -15,-24 -2,-9 -3,-19 -1,-28 4,-19 15,-35 30,-48 2,-2 4,-3 7,-5 3,-1 5,-1 8,0 2,1 4,3 5,4 1,2 2,4 2,6 5,17 1,35 1,53 z" />
<path d="m 158,146 c -0,3 -0,6 0,9 0,5 2,10 5,15 3,5 7,8 11,12 6,4 13,7 20,6 4,0 8,-2 12,-5 4,-3 6,-6 8,-9 4,-7 5,-16 5,-25 -2,-17 -12,-31 -21,-46 -4,-6 -7,-13 -12,-18 -3,-3 -6,-4 -10,-5 -4,-1 -8,-1 -10,2 -2,1 -3,3 -5,5 -1,2 -2,4 -2,6 -3,8 -3,17 -2,26 1,9 2,18 1,27 z" />
<path d="m 256,268 c -3,1 -6,-1 -9,-2 -6,-2 -11,-5 -16,-9 -4,-4 -8,-8 -11,-15 -2,-5 -3,-10 -3,-17 0,-6 2,-12 3,-17 5,-19 14,-37 26,-52 1,-1 2,-3 4,-3 1,-1 3,-1 4,-1 2,0 3,0 4,1 4,3 5,4 6,6 5,7 7,15 8,24 1,8 1,17 2,25 1,11 3,22 1,32 -1,5 -2,11 -5,15 -3,5 -6,9 -8,11 -2,1 -5,2 -5,2 z" />
<path d="m 172,70 c -1,1 -2,1 -3,2 -1,1 -4,1 -5,0 -2,-0 -4,-0 -5,-1 -3,-2 -5,-5 -6,-8 -1,-3 -1,-7 0,-11 1,-4 2,-7 2,-11 0,-1 0,-3 1,-4 0,-1 1,-1 1,-2 0,-1 1,-1 2,-1 1,0 1,0 2,0 1,0 1,1 2,1 1,1 2,2 3,3 4,6 7,12 9,19 1,2 1,4 1,6 0,1 0,2 -1,3 -1,1 -1,2 -2,3 z" />
<path d="m 115,65 c 1,1 2,1 4,1 2,1 4,1 5,1 2,1 4,0 5,-1 3,-2 5,-5 6,-8 1,-3 1,-7 0,-11 -1,-4 -2,-7 -2,-11 -0,-1 -0,-3 -1,-4 -0,-1 -1,-1 -1,-2 0,0 -1,-1 -2,-1 -1,0 -1,0 -2,0 -1,0 -1,1 -2,1 -1,1 -2,2 -3,3 -4,6 -7,12 -9,19 -1,2 -1,4 -1,6 0,1 0,2 1,3 0,1 1,2 3,5 z" />
<path d="m 271,140 c -2,1 -2,1 -4,2 -2,1 -4,1 -5,1 -2,0 -4,-1 -5,-2 -3,-2 -5,-5 -6,-8 -1,-4 -1,-7 0,-11 1,-4 2,-7 2,-11 0,-1 0,-3 1,-4 0,-1 1,-1 1,-2 1,-1 1,-1 2,-1 1,0 2,0 2,0 1,0 1,1 2,1 1,1 2,2 3,3 4,6 7,12 9,19 1,2 1,4 1,6 0,1 -0,2 -1,3 0,0 -1,2 -2,3 z" />
<path d="m 36,156 c 1,1 2,1 4,2 2,0 4,1 4,0 2,0 4,0 5,-1 3,-2 5,-5 6,-8 1,-3 1,-7 0,-11 -1,-4 -2,-7 -2,-11 0,-1 0,-3 -1,-4 0,-1 -1,-1 -1,-2 0,0 -1,-1 -2,-1 -1,-0 -1,-0 -2,0 -1,0 -1,1 -2,1 -1,1 -2,2 -3,3 -4,6 -7,12 -9,19 -1,2 -1,4 -1,6 0,1 0,2 1,3 0,1 1,2 2,3 z" />
</g>
</svg>