<?xml version="1.0" encoding="utf-8"?>
<svg xmlns="http://www.w3.org/2000/svg" viewBox="0 0 100 100"  stroke-width="3" stroke="rgb(240,188,212)" fill="none" stroke-linejoin="round">
<circle cx="45" cy="11.5" r="9" />
<path d="m 52.5,23 c -5,1 -10,0.5 -14,2 l -21,24 c 0.5,4.5 3,5 7.5,5 4,-6 3.2,-2.6 15.7,-18 0,7 -0.2,13.5 -0.3,20.2 l 21,-10e-7 C 60.5,49 59.2,42.4 61,35 l 6.2,4 0.6,13 c 5.6,3 4.3,1.4 8.6,-10e-7 L 75.3,35.2 C 68.3,28.1 64,27.2 58.2,24 Z" />
<path d="m 61,56 -21,10e-7 L 15.5,97 c 5,2.5 7.8,2.5 12.8,0 3.5,-14 18,-34.5 23.7,-29 9.5,8.5 12.3,19 14.5,29 4,2 8,1.2 11.5,0.5 z" />
</svg>
