<?xml version="1.0" encoding="UTF-8" standalone="no"?>
<svg width="200" height="100" viewBox="0 0 200 100" version="1.1" xmlns="http://www.w3.org/2000/svg" xmlns:svg="http://www.w3.org/2000/svg" stroke="rgb(240,188,212)" stroke-width="3" stroke-linecap="round" stroke-linejoin="round" fill="none">

<g stroke="rgb(138,28,124)">
<rect fill="none" width="197" height="97" x="1.5" y="1.5" />
<g stroke-dasharray="5" stroke-dashoffset="0">
<path d="M 11.5,9.5 63.5,36.5" />
<path d="M 11.5,88.5 63.5,61.5" />
<path d="m 140.5,61.5 52,27" />
<path d="M 140.5,36.5 188.5,9.5" />
</g></g> 
<path d="M 81.5,41.5 V 22 c 2,-5 6,-7 12,-7 h 15 c 2,0 8,2 10,7 v 20" />
<path d="m 75,43 h 50 c 0,12 0,24 -4,34 -7,5 -14,7 -21,9 C 93,85 85,81 79,77 76,66 75,54 75,43 Z" />
<circle fill="rgb(240,188,212)" cy="61" cx="100" r="4" />
<rect fill="rgb(240,188,212)" width="4" height="7" x="98" y="65" />
</svg>