<?xml version="1.0" standalone="no"?>
<!DOCTYPE svg PUBLIC "-//W3C//DTD SVG 20010904//EN"
 "http://www.w3.org/TR/2001/REC-SVG-20010904/DTD/svg10.dtd">
<svg version="1.0" xmlns="http://www.w3.org/2000/svg"
 width="700.000000pt" height="700.000000pt" viewBox="0 0 700.000000 700.000000"
 preserveAspectRatio="xMidYMid meet">
<metadata>
Created by potrace 1.14, written by Peter Selinger 2001-2017
</metadata>
<g transform="translate(0.000000,700.000000) scale(0.100000,-0.100000)"
fill="#000000" stroke="none">
<path d="M3367 6964 c-1 -1 -49 -4 -107 -8 -58 -3 -116 -8 -130 -11 -14 -2
-50 -6 -80 -9 -30 -4 -65 -8 -76 -10 -12 -3 -38 -7 -58 -10 -363 -58 -795
-212 -1130 -403 -141 -81 -450 -294 -496 -343 -3 -3 -39 -35 -81 -72 -267
-236 -501 -515 -676 -808 -47 -79 -106 -185 -123 -220 -4 -8 -19 -37 -33 -65
-122 -241 -260 -678 -293 -923 -3 -26 -8 -49 -9 -53 -2 -3 -7 -39 -11 -80 -3
-40 -8 -76 -10 -80 -6 -11 -18 -257 -18 -374 0 -113 11 -328 19 -377 2 -13 7
-45 10 -73 4 -27 9 -64 11 -82 2 -17 13 -78 25 -135 11 -57 22 -113 25 -125 2
-12 20 -78 39 -145 307 -1076 1106 -1935 2155 -2316 446 -162 960 -233 1435
-198 829 61 1609 419 2196 1008 382 383 662 837 839 1358 30 89 92 318 104
385 3 17 7 41 10 55 8 40 27 161 32 205 2 22 6 49 9 60 22 104 23 628 0 766
-2 13 -11 76 -20 139 -9 63 -20 131 -25 150 -5 19 -12 51 -15 70 -3 19 -19 86
-36 148 -207 783 -698 1487 -1359 1948 -453 317 -1037 545 -1533 599 -29 3
-68 8 -87 10 -122 14 -492 28 -503 19z m364 -218 c124 -8 149 -11 404 -53 17
-2 84 -18 150 -34 1013 -251 1856 -988 2239 -1957 42 -107 103 -282 111 -322
1 -3 14 -57 29 -120 30 -124 30 -123 41 -190 4 -25 9 -53 11 -64 2 -10 6 -44
10 -75 3 -31 8 -65 10 -76 16 -86 22 -405 10 -575 -24 -361 -114 -736 -253
-1061 -40 -93 -166 -337 -209 -405 -169 -268 -290 -420 -484 -614 -87 -87
-125 -123 -218 -202 -78 -68 -275 -207 -395 -280 -207 -126 -400 -217 -620
-294 -90 -31 -319 -95 -387 -108 -14 -3 -47 -9 -75 -15 -27 -5 -70 -12 -95
-16 -25 -3 -56 -8 -70 -10 -24 -4 -66 -8 -180 -20 -119 -13 -512 -7 -620 10
-14 2 -50 7 -80 10 -47 6 -203 33 -279 49 -13 3 -76 20 -140 37 -752 204
-1412 681 -1850 1336 -45 67 -81 125 -81 129 0 4 -6 15 -14 23 -29 33 -166
311 -219 446 -48 121 -112 312 -122 364 -2 9 -10 43 -18 76 -17 66 -18 70 -47
230 -59 334 -59 727 1 1080 172 1029 852 1933 1789 2383 331 159 683 264 990
297 30 4 61 8 68 10 7 3 68 8 135 11 67 4 123 7 124 8 5 4 248 -2 334 -8z"/>
<path d="M2006 5999 c-36 -28 -43 -49 -51 -145 -13 -162 -14 -181 -20 -264 -3
-47 -8 -107 -10 -135 -2 -27 -7 -86 -10 -130 -3 -44 -7 -105 -10 -135 -4 -56
-11 -137 -20 -265 -3 -38 -7 -97 -10 -130 -2 -33 -7 -98 -10 -145 l-5 -85 -63
-58 c-34 -32 -114 -107 -177 -167 -63 -59 -131 -122 -150 -140 -169 -155 -170
-156 -185 -265 -4 -22 -8 -47 -10 -55 -2 -8 -7 -35 -10 -60 -3 -25 -8 -52 -10
-60 -2 -8 -7 -33 -10 -55 -3 -23 -8 -52 -10 -65 -3 -14 -10 -54 -16 -90 -5
-36 -12 -76 -14 -90 -2 -14 -11 -65 -19 -115 -8 -49 -18 -101 -21 -115 -17
-80 1 -157 41 -174 10 -4 320 -243 351 -271 6 -5 67 -53 135 -105 l123 -95
335 -439 c184 -241 340 -444 345 -450 6 -6 57 -73 115 -149 57 -76 115 -148
129 -158 25 -20 25 -20 26 -194 0 -160 2 -176 21 -202 31 -41 741 -465 779
-465 40 0 50 5 200 95 72 43 229 138 349 210 121 73 228 144 240 160 18 25 20
42 21 221 l1 193 81 124 c45 68 132 203 195 299 62 96 164 254 226 350 63 96
133 204 157 240 23 36 68 106 100 155 47 73 117 148 361 393 242 242 305 310
310 336 4 25 -20 119 -100 387 -58 195 -110 363 -115 374 -8 19 -83 107 -236
280 -68 78 -211 242 -231 265 -16 19 -20 47 -29 170 -4 52 -9 113 -11 135 -1
22 -6 83 -10 135 -3 52 -7 102 -9 110 -2 9 -6 65 -10 125 -4 61 -8 124 -10
140 -5 49 -15 176 -20 235 -2 30 -6 96 -10 145 -11 156 -17 175 -65 200 -34
18 -60 19 -93 4 -24 -11 -39 -27 -267 -304 -68 -82 -167 -202 -219 -265 -53
-64 -114 -137 -136 -164 -22 -27 -44 -54 -50 -60 -11 -12 -158 -190 -159 -193
-1 -1 -115 34 -254 78 -139 43 -262 79 -272 79 -11 0 -126 -43 -257 -95 l-238
-94 -20 23 c-11 13 -42 49 -70 81 -27 32 -55 63 -60 69 -6 6 -38 43 -71 81
-99 116 -109 127 -119 139 -14 16 -223 256 -249 286 -270 317 -303 350 -348
350 -21 0 -46 -9 -62 -21z m217 -426 c36 -43 76 -90 89 -104 52 -59 433 -498
527 -608 109 -127 92 -127 405 -2 139 55 257 101 263 101 5 0 124 -36 264 -81
140 -44 272 -81 293 -81 43 0 68 21 166 142 25 30 55 66 66 80 12 14 77 93
145 175 68 83 128 155 134 161 5 6 35 42 65 79 129 158 169 204 174 197 2 -4
7 -50 11 -102 4 -52 8 -108 10 -125 1 -16 5 -75 9 -130 4 -55 9 -116 11 -135
3 -19 7 -71 10 -115 3 -44 8 -105 11 -135 2 -30 7 -84 9 -120 10 -152 18 -216
27 -233 5 -10 30 -42 56 -71 26 -28 72 -81 103 -116 101 -116 223 -255 233
-266 10 -10 23 -26 83 -95 14 -16 193 -598 193 -627 0 -8 -125 -140 -279 -293
l-278 -279 -169 -260 c-93 -144 -189 -292 -214 -330 -25 -39 -91 -142 -148
-230 -57 -88 -107 -160 -110 -160 -4 0 -7 153 -7 341 l-1 341 -32 29 c-18 16
-39 30 -47 30 -8 1 -21 2 -27 3 -19 3 -60 -19 -83 -44 -19 -21 -20 -38 -20
-711 l0 -690 -95 -56 c-52 -30 -106 -63 -120 -73 -14 -9 -45 -28 -70 -42 -25
-14 -104 -62 -177 -106 l-132 -80 -183 110 c-101 61 -196 118 -213 128 -44 25
-189 113 -195 117 -3 3 -5 315 -5 694 l0 689 -30 29 c-32 32 -62 39 -112 27
-25 -6 -36 -17 -51 -49 -18 -39 -19 -67 -18 -419 1 -208 -1 -378 -5 -378 -3 0
-26 28 -51 62 -25 35 -201 266 -390 513 -383 500 -331 446 -687 720 -100 77
-197 152 -214 167 -18 15 -36 28 -40 28 -5 0 -6 3 -4 8 3 4 8 32 12 62 4 30 8
57 10 60 2 3 6 28 9 55 4 28 11 73 16 100 5 28 12 64 14 80 30 184 37 223 41
245 2 13 7 42 10 65 7 51 16 79 25 85 7 4 185 171 314 294 23 21 78 72 124
114 45 42 89 86 97 98 18 28 23 72 50 454 3 47 8 105 10 130 2 25 6 83 10 130
7 98 9 132 30 400 2 19 4 45 4 58 1 12 3 22 4 22 2 0 34 -35 70 -77z"/>
<path d="M2474 3732 c-36 -16 -61 -64 -58 -105 2 -19 52 -89 152 -215 83 -103
158 -195 169 -204 68 -62 188 14 163 104 -9 29 -282 383 -321 415 -23 19 -72
21 -105 5z"/>
<path d="M4525 3742 c-31 -6 -47 -24 -193 -207 -75 -93 -139 -172 -142 -175
-8 -6 -26 -61 -25 -75 2 -30 30 -75 53 -83 54 -21 68 -21 98 -3 27 16 272 311
319 385 51 77 -19 178 -110 158z"/>
<path d="M3319 1494 c-60 -25 -83 -110 -42 -156 20 -23 200 -146 248 -170 17
-8 43 -13 59 -11 29 4 247 145 278 180 43 48 19 131 -46 158 -44 19 -67 11
-162 -52 l-84 -56 -82 55 c-97 64 -121 71 -169 52z"/>
</g>
</svg>
