<?xml version="1.0" standalone="no"?>
<!DOCTYPE svg PUBLIC "-//W3C//DTD SVG 20010904//EN"
 "http://www.w3.org/TR/2001/REC-SVG-20010904/DTD/svg10.dtd">
<svg version="1.0" xmlns="http://www.w3.org/2000/svg"
 width="700.000000pt" height="700.000000pt" viewBox="0 0 700.000000 700.000000"
 preserveAspectRatio="xMidYMid meet">
<metadata>
Created by potrace 1.14, written by Peter Selinger 2001-2017
</metadata>
<g transform="translate(0.000000,700.000000) scale(0.100000,-0.100000)"
fill="#000000" stroke="none">
<path d="M3367 6964 c-1 -1 -49 -4 -107 -8 -58 -3 -116 -8 -130 -11 -14 -2
-50 -6 -80 -9 -30 -4 -65 -8 -76 -10 -12 -3 -38 -7 -58 -10 -363 -58 -795
-212 -1130 -403 -141 -81 -450 -294 -496 -343 -3 -3 -39 -35 -81 -72 -267
-236 -501 -515 -676 -808 -47 -79 -106 -185 -123 -220 -4 -8 -19 -37 -33 -65
-144 -285 -284 -762 -313 -1060 -3 -33 -7 -65 -9 -72 -7 -22 -19 -258 -19
-378 0 -113 11 -328 19 -377 2 -13 7 -45 10 -73 4 -27 9 -64 11 -82 2 -17 13
-78 25 -135 11 -57 22 -113 25 -125 2 -12 20 -78 39 -145 248 -868 816 -1600
1595 -2054 595 -347 1304 -511 1995 -460 836 62 1619 424 2209 1021 375 379
651 830 826 1345 30 89 92 318 104 385 3 17 7 41 10 55 8 40 27 161 32 205 2
22 6 49 9 60 22 102 23 647 0 762 -1 11 -6 46 -10 78 -6 50 -24 153 -51 295
-10 51 -66 254 -90 328 -291 875 -903 1589 -1719 2007 -349 179 -777 313
-1118 350 -29 3 -68 8 -87 10 -122 14 -492 28 -503 19z m364 -218 c124 -8 149
-11 404 -53 17 -2 84 -18 150 -34 1013 -251 1856 -988 2239 -1957 42 -107 103
-282 111 -322 1 -3 14 -57 29 -120 30 -124 30 -123 41 -190 4 -25 9 -53 11
-64 2 -10 6 -44 10 -75 3 -31 8 -65 10 -76 16 -86 22 -405 10 -575 -24 -361
-114 -736 -253 -1061 -40 -93 -166 -337 -209 -405 -169 -267 -288 -417 -484
-614 -87 -87 -124 -122 -218 -202 -136 -118 -430 -311 -613 -403 -156 -79
-459 -199 -553 -220 -11 -2 -64 -15 -116 -29 -52 -14 -106 -27 -120 -30 -14
-2 -47 -9 -75 -15 -27 -5 -70 -12 -95 -16 -25 -3 -56 -8 -70 -10 -24 -4 -66
-8 -180 -20 -119 -13 -512 -7 -620 10 -14 2 -50 7 -80 10 -46 6 -194 32 -288
51 -12 2 -92 24 -177 49 -734 211 -1375 680 -1804 1322 -45 67 -81 125 -81
129 0 4 -6 15 -14 23 -29 33 -166 311 -219 446 -68 173 -138 400 -161 525 -2
14 -11 63 -20 110 -8 47 -18 107 -22 135 -3 27 -8 61 -9 75 -27 208 -23 555 9
795 142 1072 832 2025 1806 2493 326 157 686 265 990 297 30 4 61 8 68 10 7 3
68 8 135 11 67 4 123 7 124 8 5 4 248 -2 334 -8z"/>
<path d="M2043 5861 c-17 -11 -35 -30 -39 -43 -5 -13 -9 -369 -9 -793 l-1
-770 -26 -65 c-30 -74 -83 -200 -103 -245 -8 -16 -82 -194 -165 -395 -83 -201
-169 -407 -191 -459 l-40 -94 3 -298 3 -299 610 -610 609 -609 1 -169 c0 -138
3 -172 16 -193 20 -30 750 -399 789 -399 40 0 768 368 788 398 14 21 17 54 17
194 l0 168 602 603 c330 331 606 612 612 624 7 14 11 118 11 305 l0 283 -245
630 -245 630 -5 220 c-7 283 -12 506 -20 885 -9 418 -10 444 -29 472 -18 27
-56 48 -86 48 -49 0 -77 -31 -279 -313 -113 -159 -210 -296 -216 -305 -5 -10
-13 -19 -16 -22 -3 -3 -23 -30 -45 -61 -135 -195 -356 -499 -363 -499 -7 0
-115 38 -276 97 -38 14 -95 32 -125 41 l-55 14 -230 -76 c-126 -42 -234 -76
-240 -76 -6 0 -47 48 -90 108 -44 59 -190 256 -325 437 -135 182 -296 398
-358 481 -133 179 -165 200 -239 155z m314 -608 c81 -109 207 -279 280 -378
73 -99 139 -187 146 -195 6 -8 42 -56 79 -106 84 -113 98 -126 142 -126 19 0
146 37 283 83 l248 82 100 -35 c55 -20 159 -57 230 -83 132 -47 178 -55 212
-37 15 8 271 356 373 505 8 12 42 60 75 106 67 93 88 122 195 274 41 58 76
104 79 102 2 -3 5 -63 7 -133 21 -1057 23 -1108 55 -1177 5 -11 80 -204 168
-430 196 -506 225 -581 262 -674 l29 -73 0 -232 0 -231 -508 -508 -507 -507 0
316 c0 339 -2 359 -50 390 -52 34 -116 17 -148 -41 -8 -14 -11 -194 -12 -607
0 -425 -4 -591 -12 -599 -6 -6 -140 -75 -297 -154 l-286 -142 -292 146 c-161
80 -295 147 -297 149 -3 1 -5 272 -5 602 l-1 600 -30 29 c-37 37 -69 43 -116
24 -63 -25 -64 -30 -64 -389 l0 -324 -507 508 -508 507 0 229 0 229 262 626
261 626 1 622 c1 343 2 623 4 623 1 0 68 -89 149 -197z"/>
<path d="M2393 3411 c-37 -23 -54 -71 -41 -116 9 -33 353 -386 400 -411 82
-43 171 31 146 121 -5 20 -75 97 -201 223 -175 175 -197 194 -233 198 -28 4
-48 -1 -71 -15z"/>
<path d="M4495 3411 c-46 -29 -382 -373 -394 -403 -15 -41 4 -95 42 -118 38
-24 68 -25 105 -6 47 25 391 378 400 411 13 46 -4 93 -41 115 -40 25 -74 25
-112 1z"/>
<path d="M3284 1320 c-34 -14 -64 -59 -64 -98 0 -28 8 -42 39 -71 55 -52 206
-134 244 -134 38 0 225 110 258 151 30 39 21 97 -22 136 -41 37 -85 32 -167
-18 -33 -20 -65 -36 -72 -36 -6 0 -42 18 -79 40 -67 40 -97 46 -137 30z"/>
</g>
</svg>
